<svg xmlns="http://www.w3.org/2000/svg" version="1.1" xmlns:xlink="http://www.w3.org/1999/xlink" xmlns:svgjs="http://svgjs.com/svgjs" width="1440" height="560" preserveAspectRatio="none" viewBox="0 0 1440 560"><g mask="url(&quot;#SvgjsMask1001&quot;)" fill="none"><path d="M1150.3 75.14 a49.18 49.18 0 1 0 98.36 0 a49.18 49.18 0 1 0 -98.36 0z" fill="#d3b714"></path><path d="M1335.84 121.48 a28.07 28.07 0 1 0 56.14 0 a28.07 28.07 0 1 0 -56.14 0z" stroke="#e73635"></path><path d="M1192.73 370.08L1248.6 370.08L1248.6 375.3L1192.73 375.3z" stroke="#037b0b"></path><path d="M498.33 302.42L533.17 302.42L533.17 323.4L498.33 323.4z" stroke="#e73635"></path><path d="M380.24 511.53a26.76 26.76 0 1 0-43.86-30.67z" fill="#d3b714"></path><path d="M681.27 404.49 a27.34 27.34 0 1 0 54.68 0 a27.34 27.34 0 1 0 -54.68 0z" fill="#e73635"></path><path d="M832.39 523.37L866.74 523.37L866.74 557.72L832.39 557.72z" stroke="#d3b714"></path><path d="M928.48 143.69 a26.87 26.87 0 1 0 53.74 0 a26.87 26.87 0 1 0 -53.74 0z" stroke="#e73635"></path><path d="M480.36 41.38L518.59 41.38L518.59 64.47L480.36 64.47z" stroke="#e73635"></path><path d="M1147.25 58.39L1148.11 58.39L1148.11 70.17L1147.25 70.17z" stroke="#037b0b"></path><path d="M92.42 498.16 a46.85 46.85 0 1 0 93.7 0 a46.85 46.85 0 1 0 -93.7 0z" fill="#e73635"></path><path d="M1276.73 77.99a8.75 8.75 0 1 0-7.23-15.94z" fill="#e73635"></path><path d="M320.59 287.16L376.22 287.16L376.22 303.36L320.59 303.36z" stroke="#d3b714"></path><path d="M862.71 106.87L878.22 106.87L878.22 122.38L862.71 122.38z" stroke="#d3b714"></path><path d="M927.39 289.43 a30.27 30.27 0 1 0 60.54 0 a30.27 30.27 0 1 0 -60.54 0z" fill="#037b0b"></path><path d="M818.44 298.18L871.61 298.18L871.61 351.35L818.44 351.35z" fill="#d3b714"></path><path d="M26.82 281.62L50.02 281.62L50.02 304.82L26.82 304.82z" stroke="#037b0b"></path><path d="M1303.18 432.63 a55.77 55.77 0 1 0 111.54 0 a55.77 55.77 0 1 0 -111.54 0z" stroke="#d3b714"></path><path d="M142.33 487.5L182.9 487.5L182.9 528.07L142.33 528.07z" stroke="#037b0b"></path><path d="M990.66 58.87 a11.98 11.98 0 1 0 23.96 0 a11.98 11.98 0 1 0 -23.96 0z" stroke="#d3b714"></path><path d="M1375.99 404.39a0.76 0.76 0 1 0 1.36-0.69z" fill="#e73635"></path><path d="M6.71 519.61L35.9 519.61L35.9 548.8L6.71 548.8z" stroke="#d3b714"></path><path d="M443.61 513.32 a41.91 41.91 0 1 0 83.82 0 a41.91 41.91 0 1 0 -83.82 0z" fill="#d3b714"></path><path d="M1158.07 453.68L1161.94 453.68L1161.94 457.55L1158.07 457.55z" stroke="#037b0b"></path><path d="M1033.51 118.72L1084.03 118.72L1084.03 169.24L1033.51 169.24z" stroke="#e73635"></path><path d="M837.24 105.33L879.19 105.33L879.19 147.28L837.24 147.28z" stroke="#d3b714"></path><path d="M1106.52 360.62 a39.23 39.23 0 1 0 78.46 0 a39.23 39.23 0 1 0 -78.46 0z" fill="#d3b714"></path><path d="M1083.12 428.14 a30.21 30.21 0 1 0 60.42 0 a30.21 30.21 0 1 0 -60.42 0z" stroke="#d3b714"></path><path d="M1135.06 441.84L1145.99 441.84L1145.99 493.82L1135.06 493.82z" stroke="#e73635"></path><path d="M203.75 263.08a26.66 26.66 0 1 0 44.56 29.27z" stroke="#e73635"></path><path d="M928.3 444 a20.58 20.58 0 1 0 41.16 0 a20.58 20.58 0 1 0 -41.16 0z" fill="#e73635"></path><path d="M1251.04 51.43L1264.03 51.43L1264.03 64.42L1251.04 64.42z" fill="#e73635"></path><path d="M570.34 480.63L593.1 480.63L593.1 521.23L570.34 521.23z" stroke="#e73635"></path></g><defs><mask id="SvgjsMask1001"><rect width="1440" height="560" fill="#ffffff"></rect></mask></defs></svg>