<svg xmlns="http://www.w3.org/2000/svg" version="1.1" xmlns:xlink="http://www.w3.org/1999/xlink" xmlns:svgjs="http://svgjs.com/svgjs" width="1440" height="560" preserveAspectRatio="none" viewBox="0 0 1440 560"><g mask="url(&quot;#SvgjsMask1029&quot;)" fill="none"><rect width="129.84" height="129.84" clip-path="url(&quot;#SvgjsClipPath1030&quot;)" x="438.95" y="481.22" fill="url(#SvgjsPattern1031)" transform="rotate(243.57, 503.87, 546.14)"></rect><rect width="72" height="72" clip-path="url(&quot;#SvgjsClipPath1032&quot;)" x="277.19" y="279.82" fill="url(#SvgjsPattern1033)" transform="rotate(315.22, 313.19, 315.82)"></rect><path d="M773.09 244.58a5.6 5.6 0 1 0 1.5-11.1 5.6 5.6 0 1 0-1.5 11.1zM775.24 228.72a5.6 5.6 0 1 0 1.5-11.1 5.6 5.6 0 1 0-1.5 11.1zM777.39 212.87a5.6 5.6 0 1 0 1.5-11.1 5.6 5.6 0 1 0-1.5 11.1zM779.54 197.01a5.6 5.6 0 1 0 1.5-11.1 5.6 5.6 0 1 0-1.5 11.1zM784.65 278.43a5.6 5.6 0 1 0 1.5-11.09 5.6 5.6 0 1 0-1.5 11.09zM786.8 262.58a5.6 5.6 0 1 0 1.5-11.1 5.6 5.6 0 1 0-1.5 11.1zM788.95 246.72a5.6 5.6 0 1 0 1.5-11.09 5.6 5.6 0 1 0-1.5 11.09zM791.09 230.87a5.6 5.6 0 1 0 1.51-11.1 5.6 5.6 0 1 0-1.51 11.1zM796.2 312.29a5.6 5.6 0 1 0 1.51-11.09 5.6 5.6 0 1 0-1.51 11.09zM798.35 296.44a5.6 5.6 0 1 0 1.51-11.1 5.6 5.6 0 1 0-1.51 11.1zM800.5 280.58a5.6 5.6 0 1 0 1.51-11.09 5.6 5.6 0 1 0-1.51 11.09zM802.65 264.73a5.6 5.6 0 1 0 1.51-11.1 5.6 5.6 0 1 0-1.51 11.1z" fill="#d3b714"></path><path d="M1284.63 77.98a5.6 5.6 0 1 0-7.25 8.53 5.6 5.6 0 1 0 7.25-8.53zM1274.27 90.17a5.6 5.6 0 1 0-7.25 8.53 5.6 5.6 0 1 0 7.25-8.53zM1263.91 102.36a5.6 5.6 0 1 0-7.25 8.54 5.6 5.6 0 1 0 7.25-8.54zM1253.55 114.56a5.6 5.6 0 1 0-7.25 8.53 5.6 5.6 0 1 0 7.25-8.53z" stroke="#e73635" stroke-width="1.25"></path><path d="M369.4 322.24a5.6 5.6 0 1 0-10.82-2.91 5.6 5.6 0 1 0 10.82 2.91zM353.95 318.08a5.6 5.6 0 1 0-10.82-2.91 5.6 5.6 0 1 0 10.82 2.91zM338.5 313.93a5.6 5.6 0 1 0-10.82-2.91 5.6 5.6 0 1 0 10.82 2.91zM323.05 309.77a5.6 5.6 0 1 0-10.82-2.91 5.6 5.6 0 1 0 10.82 2.91z" fill="#037b0b"></path><circle r="46.666666666666664" cx="1315.82" cy="236.88" fill="#e73635"></circle><rect width="285.48" height="285.48" clip-path="url(&quot;#SvgjsClipPath1034&quot;)" x="726.74" y="295.79" fill="url(#SvgjsPattern1035)" transform="rotate(17.86, 869.48, 438.53)"></rect><path d="M918.46 453.78 L883.19 552.88L967.5856895714631 570.0906895714631z" fill="#d3b714"></path><rect width="189.44" height="189.44" clip-path="url(&quot;#SvgjsClipPath1036&quot;)" x="1111.12" y="82.03" fill="url(#SvgjsPattern1037)" transform="rotate(174.03, 1205.84, 176.75)"></rect><path d="M1442.44 469.56a5.6 5.6 0 1 0-7.49 8.33 5.6 5.6 0 1 0 7.49-8.33zM1431.75 481.46a5.6 5.6 0 1 0-7.49 8.33 5.6 5.6 0 1 0 7.49-8.33zM1421.05 493.37a5.6 5.6 0 1 0-7.48 8.33 5.6 5.6 0 1 0 7.48-8.33zM1410.36 505.27a5.6 5.6 0 1 0-7.49 8.33 5.6 5.6 0 1 0 7.49-8.33z" stroke="#e73635" stroke-width="2.38" stroke-dasharray="4, 4"></path><path d="M1062.39 465.13L1068.05 453.64 1080.5 456.64 1086.16 445.16 1098.61 448.16 1104.27 436.67 1116.72 439.67" stroke="#d3b714" stroke-width="2.4" stroke-dasharray="3, 3"></path><rect width="230.39999999999998" height="230.39999999999998" clip-path="url(&quot;#SvgjsClipPath1038&quot;)" x="705.99" y="271.16" fill="url(#SvgjsPattern1039)" transform="rotate(187.54, 821.19, 386.36)"></rect></g><defs><mask id="SvgjsMask1029"><rect width="1440" height="560" fill="#ffffff"></rect></mask><pattern x="0" y="0" width="10.82" height="10.82" patternUnits="userSpaceOnUse" id="SvgjsPattern1031"><path d="M0 10.82L5.41 0L10.82 10.82" stroke="#037b0b" fill="none"></path></pattern><clipPath id="SvgjsClipPath1030"><circle r="32.46" cx="503.87" cy="546.14"></circle></clipPath><pattern x="0" y="0" width="6" height="6" patternUnits="userSpaceOnUse" id="SvgjsPattern1033"><path d="M3 1L3 5M1 3L5 3" stroke="#037b0b" fill="none" stroke-width="1"></path></pattern><clipPath id="SvgjsClipPath1032"><circle r="18" cx="313.19" cy="315.82"></circle></clipPath><pattern x="0" y="0" width="10.98" height="10.98" patternUnits="userSpaceOnUse" id="SvgjsPattern1035"><path d="M0 10.98L5.49 0L10.98 10.98" stroke="#037b0b" fill="none"></path></pattern><clipPath id="SvgjsClipPath1034"><circle r="71.37" cx="869.48" cy="438.53"></circle></clipPath><pattern x="0" y="0" width="189.44" height="11.84" patternUnits="userSpaceOnUse" id="SvgjsPattern1037"><rect width="189.44" height="5.92" x="0" y="0" fill="#d3b714"></rect><rect width="189.44" height="5.92" x="0" y="5.92" fill="rgba(0, 0, 0, 0)"></rect></pattern><clipPath id="SvgjsClipPath1036"><circle r="47.36" cx="1205.84" cy="176.75"></circle></clipPath><pattern x="0" y="0" width="9.6" height="9.6" patternUnits="userSpaceOnUse" id="SvgjsPattern1039"><path d="M0 9.6L4.8 0L9.6 9.6" stroke="#e73635" fill="none"></path></pattern><clipPath id="SvgjsClipPath1038"><circle r="57.599999999999994" cx="821.19" cy="386.36"></circle></clipPath></defs></svg>