<svg xmlns="http://www.w3.org/2000/svg" version="1.1" xmlns:xlink="http://www.w3.org/1999/xlink" xmlns:svgjs="http://svgjs.com/svgjs" width="1440" height="560" preserveAspectRatio="none" viewBox="0 0 1440 560"><g mask="url(&quot;#SvgjsMask1006&quot;)" fill="none"><path d="M-85.66 361.96L-85.66 361.96" stroke="#132e65" stroke-width="1.5"></path><path d="M-85.66 361.96L-85.4 537.62" stroke="#132e65" stroke-width="1.5"></path><path d="M-85.66 361.96L98.53 391.94" stroke="#132e65" stroke-width="1.5"></path><path d="M-85.4 537.62L-85.4 537.62" stroke="#132e65" stroke-width="1.5"></path><path d="M-85.4 537.62L-98.01 677.19" stroke="#132e65" stroke-width="1.5"></path><path d="M-85.4 537.62L111.71 552.18" stroke="#132e65" stroke-width="1.5"></path><path d="M-85.4 537.62L78.38 670.1" stroke="#132e65" stroke-width="1.5"></path><path d="M-98.01 677.19L-98.01 677.19" stroke="#132e65" stroke-width="1.5"></path><path d="M-98.01 677.19L78.38 670.1" stroke="#132e65" stroke-width="1.5"></path><path d="M-98.01 677.19L111.71 552.18" stroke="#132e65" stroke-width="1.5"></path><path d="M-98.01 677.19L-85.66 361.96" stroke="#132e65" stroke-width="1.5"></path><path d="M98.53 391.94L98.53 391.94" stroke="#132e65" stroke-width="1.5"></path><path d="M98.53 391.94L248.13 338.47" stroke="#132e65" stroke-width="1.5"></path><path d="M98.53 391.94L111.71 552.18" stroke="#132e65" stroke-width="1.5"></path><path d="M111.71 552.18L111.71 552.18" stroke="#132e65" stroke-width="1.5"></path><path d="M111.71 552.18L78.38 670.1" stroke="#132e65" stroke-width="1.5"></path><path d="M111.71 552.18L234.84 512.33" stroke="#132e65" stroke-width="1.5"></path><path d="M111.71 552.18L255.34 655.17" stroke="#132e65" stroke-width="1.5"></path><path d="M78.38 670.1L78.38 670.1" stroke="#132e65" stroke-width="1.5"></path><path d="M78.38 670.1L255.34 655.17" stroke="#132e65" stroke-width="1.5"></path><path d="M78.38 670.1L234.84 512.33" stroke="#132e65" stroke-width="1.5"></path><path d="M248.13 338.47L248.13 338.47" stroke="#132e65" stroke-width="1.5"></path><path d="M248.13 338.47L409.09 402.94" stroke="#132e65" stroke-width="1.5"></path><path d="M248.13 338.47L234.84 512.33" stroke="#132e65" stroke-width="1.5"></path><path d="M234.84 512.33L234.84 512.33" stroke="#132e65" stroke-width="1.5"></path><path d="M234.84 512.33L353.54 495.55" stroke="#132e65" stroke-width="1.5"></path><path d="M234.84 512.33L255.34 655.17" stroke="#132e65" stroke-width="1.5"></path><path d="M255.34 655.17L255.34 655.17" stroke="#132e65" stroke-width="1.5"></path><path d="M255.34 655.17L346.14 666.12" stroke="#132e65" stroke-width="1.5"></path><path d="M409.09 402.94L409.09 402.94" stroke="#132e65" stroke-width="1.5"></path><path d="M409.09 402.94L353.54 495.55" stroke="#132e65" stroke-width="1.5"></path><path d="M409.09 402.94L528.36 489.47" stroke="#132e65" stroke-width="1.5"></path><path d="M409.09 402.94L234.84 512.33" stroke="#132e65" stroke-width="1.5"></path><path d="M409.09 402.94L346.14 666.12" stroke="#132e65" stroke-width="1.5"></path><path d="M409.09 402.94L686.61 354.47" stroke="#132e65" stroke-width="1.5"></path><path d="M353.54 495.55L353.54 495.55" stroke="#132e65" stroke-width="1.5"></path><path d="M353.54 495.55L346.14 666.12" stroke="#132e65" stroke-width="1.5"></path><path d="M353.54 495.55L528.36 489.47" stroke="#132e65" stroke-width="1.5"></path><path d="M353.54 495.55L255.34 655.17" stroke="#132e65" stroke-width="1.5"></path><path d="M346.14 666.12L346.14 666.12" stroke="#132e65" stroke-width="1.5"></path><path d="M528.36 489.47L528.36 489.47" stroke="#132e65" stroke-width="1.5"></path><path d="M528.36 489.47L697.8 543.09" stroke="#132e65" stroke-width="1.5"></path><path d="M528.36 489.47L535.93 673.47" stroke="#132e65" stroke-width="1.5"></path><path d="M528.36 489.47L686.61 354.47" stroke="#132e65" stroke-width="1.5"></path><path d="M528.36 489.47L346.14 666.12" stroke="#132e65" stroke-width="1.5"></path><path d="M535.93 673.47L535.93 673.47" stroke="#132e65" stroke-width="1.5"></path><path d="M535.93 673.47L671.71 709.64" stroke="#132e65" stroke-width="1.5"></path><path d="M705.1 232.23L705.1 232.23" stroke="#132e65" stroke-width="1.5"></path><path d="M705.1 232.23L686.61 354.47" stroke="#132e65" stroke-width="1.5"></path><path d="M705.1 232.23L850.94 197.24" stroke="#132e65" stroke-width="1.5"></path><path d="M686.61 354.47L686.61 354.47" stroke="#132e65" stroke-width="1.5"></path><path d="M686.61 354.47L840.88 410.83" stroke="#132e65" stroke-width="1.5"></path><path d="M686.61 354.47L697.8 543.09" stroke="#132e65" stroke-width="1.5"></path><path d="M686.61 354.47L805.7 507.14" stroke="#132e65" stroke-width="1.5"></path><path d="M686.61 354.47L850.94 197.24" stroke="#132e65" stroke-width="1.5"></path><path d="M697.8 543.09L697.8 543.09" stroke="#132e65" stroke-width="1.5"></path><path d="M697.8 543.09L805.7 507.14" stroke="#132e65" stroke-width="1.5"></path><path d="M697.8 543.09L671.71 709.64" stroke="#132e65" stroke-width="1.5"></path><path d="M697.8 543.09L794.87 708.07" stroke="#132e65" stroke-width="1.5"></path><path d="M697.8 543.09L840.88 410.83" stroke="#132e65" stroke-width="1.5"></path><path d="M671.71 709.64L671.71 709.64" stroke="#132e65" stroke-width="1.5"></path><path d="M671.71 709.64L794.87 708.07" stroke="#132e65" stroke-width="1.5"></path><path d="M850.94 197.24L850.94 197.24" stroke="#132e65" stroke-width="1.5"></path><path d="M850.94 197.24L968.43 251.42" stroke="#132e65" stroke-width="1.5"></path><path d="M850.94 197.24L840.88 410.83" stroke="#132e65" stroke-width="1.5"></path><path d="M850.94 197.24L978.21 383.65" stroke="#132e65" stroke-width="1.5"></path><path d="M850.94 197.24L1104.97 250.37" stroke="#132e65" stroke-width="1.5"></path><path d="M840.88 410.83L840.88 410.83" stroke="#132e65" stroke-width="1.5"></path><path d="M840.88 410.83L805.7 507.14" stroke="#132e65" stroke-width="1.5"></path><path d="M840.88 410.83L978.21 383.65" stroke="#132e65" stroke-width="1.5"></path><path d="M805.7 507.14L805.7 507.14" stroke="#132e65" stroke-width="1.5"></path><path d="M794.87 708.07L794.87 708.07" stroke="#132e65" stroke-width="1.5"></path><path d="M794.87 708.07L981.29 657.39" stroke="#132e65" stroke-width="1.5"></path><path d="M794.87 708.07L805.7 507.14" stroke="#132e65" stroke-width="1.5"></path><path d="M794.87 708.07L998.79 546.85" stroke="#132e65" stroke-width="1.5"></path><path d="M991.9 -93.16L991.9 -93.16" stroke="#132e65" stroke-width="1.5"></path><path d="M991.9 -93.16L1114.38 -101.97" stroke="#132e65" stroke-width="1.5"></path><path d="M991.9 -93.16L1137.09 42.34" stroke="#132e65" stroke-width="1.5"></path><path d="M991.9 -93.16L1276.87 -52.25" stroke="#132e65" stroke-width="1.5"></path><path d="M968.43 251.42L968.43 251.42" stroke="#132e65" stroke-width="1.5"></path><path d="M968.43 251.42L978.21 383.65" stroke="#132e65" stroke-width="1.5"></path><path d="M968.43 251.42L1104.97 250.37" stroke="#132e65" stroke-width="1.5"></path><path d="M968.43 251.42L1129.64 373.24" stroke="#132e65" stroke-width="1.5"></path><path d="M968.43 251.42L840.88 410.83" stroke="#132e65" stroke-width="1.5"></path><path d="M978.21 383.65L978.21 383.65" stroke="#132e65" stroke-width="1.5"></path><path d="M978.21 383.65L1129.64 373.24" stroke="#132e65" stroke-width="1.5"></path><path d="M978.21 383.65L998.79 546.85" stroke="#132e65" stroke-width="1.5"></path><path d="M978.21 383.65L1104.97 250.37" stroke="#132e65" stroke-width="1.5"></path><path d="M998.79 546.85L998.79 546.85" stroke="#132e65" stroke-width="1.5"></path><path d="M998.79 546.85L981.29 657.39" stroke="#132e65" stroke-width="1.5"></path><path d="M998.79 546.85L1124.02 519.93" stroke="#132e65" stroke-width="1.5"></path><path d="M998.79 546.85L1097.96 646.78" stroke="#132e65" stroke-width="1.5"></path><path d="M981.29 657.39L981.29 657.39" stroke="#132e65" stroke-width="1.5"></path><path d="M981.29 657.39L1097.96 646.78" stroke="#132e65" stroke-width="1.5"></path><path d="M1114.38 -101.97L1114.38 -101.97" stroke="#132e65" stroke-width="1.5"></path><path d="M1114.38 -101.97L1137.09 42.34" stroke="#132e65" stroke-width="1.5"></path><path d="M1114.38 -101.97L1276.87 -52.25" stroke="#132e65" stroke-width="1.5"></path><path d="M1114.38 -101.97L1269.76 89.7" stroke="#132e65" stroke-width="1.5"></path><path d="M1137.09 42.34L1137.09 42.34" stroke="#132e65" stroke-width="1.5"></path><path d="M1137.09 42.34L1269.76 89.7" stroke="#132e65" stroke-width="1.5"></path><path d="M1137.09 42.34L1276.87 -52.25" stroke="#132e65" stroke-width="1.5"></path><path d="M1137.09 42.34L1104.97 250.37" stroke="#132e65" stroke-width="1.5"></path><path d="M1104.97 250.37L1104.97 250.37" stroke="#132e65" stroke-width="1.5"></path><path d="M1104.97 250.37L1129.64 373.24" stroke="#132e65" stroke-width="1.5"></path><path d="M1104.97 250.37L1245.77 373.69" stroke="#132e65" stroke-width="1.5"></path><path d="M1104.97 250.37L1297.24 255.23" stroke="#132e65" stroke-width="1.5"></path><path d="M1129.64 373.24L1129.64 373.24" stroke="#132e65" stroke-width="1.5"></path><path d="M1129.64 373.24L1245.77 373.69" stroke="#132e65" stroke-width="1.5"></path><path d="M1129.64 373.24L1124.02 519.93" stroke="#132e65" stroke-width="1.5"></path><path d="M1129.64 373.24L1255.4 511.93" stroke="#132e65" stroke-width="1.5"></path><path d="M1124.02 519.93L1124.02 519.93" stroke="#132e65" stroke-width="1.5"></path><path d="M1124.02 519.93L1097.96 646.78" stroke="#132e65" stroke-width="1.5"></path><path d="M1097.96 646.78L1097.96 646.78" stroke="#132e65" stroke-width="1.5"></path><path d="M1097.96 646.78L1262.59 671.65" stroke="#132e65" stroke-width="1.5"></path><path d="M1276.87 -52.25L1276.87 -52.25" stroke="#132e65" stroke-width="1.5"></path><path d="M1276.87 -52.25L1269.76 89.7" stroke="#132e65" stroke-width="1.5"></path><path d="M1276.87 -52.25L1436.09 -46.82" stroke="#132e65" stroke-width="1.5"></path><path d="M1276.87 -52.25L1428.43 64.36" stroke="#132e65" stroke-width="1.5"></path><path d="M1269.76 89.7L1269.76 89.7" stroke="#132e65" stroke-width="1.5"></path><path d="M1269.76 89.7L1428.43 64.36" stroke="#132e65" stroke-width="1.5"></path><path d="M1297.24 255.23L1297.24 255.23" stroke="#132e65" stroke-width="1.5"></path><path d="M1297.24 255.23L1245.77 373.69" stroke="#132e65" stroke-width="1.5"></path><path d="M1297.24 255.23L1444.93 226.18" stroke="#132e65" stroke-width="1.5"></path><path d="M1297.24 255.23L1269.76 89.7" stroke="#132e65" stroke-width="1.5"></path><path d="M1245.77 373.69L1245.77 373.69" stroke="#132e65" stroke-width="1.5"></path><path d="M1245.77 373.69L1255.4 511.93" stroke="#132e65" stroke-width="1.5"></path><path d="M1255.4 511.93L1255.4 511.93" stroke="#132e65" stroke-width="1.5"></path><path d="M1255.4 511.93L1124.02 519.93" stroke="#132e65" stroke-width="1.5"></path><path d="M1255.4 511.93L1262.59 671.65" stroke="#132e65" stroke-width="1.5"></path><path d="M1255.4 511.93L1459.33 506.51" stroke="#132e65" stroke-width="1.5"></path><path d="M1255.4 511.93L1097.96 646.78" stroke="#132e65" stroke-width="1.5"></path><path d="M1262.59 671.65L1262.59 671.65" stroke="#132e65" stroke-width="1.5"></path><path d="M1262.59 671.65L1124.02 519.93" stroke="#132e65" stroke-width="1.5"></path><path d="M1436.09 -46.82L1436.09 -46.82" stroke="#132e65" stroke-width="1.5"></path><path d="M1436.09 -46.82L1428.43 64.36" stroke="#132e65" stroke-width="1.5"></path><path d="M1436.09 -46.82L1572.66 -48.35" stroke="#132e65" stroke-width="1.5"></path><path d="M1436.09 -46.82L1597.97 91.92" stroke="#132e65" stroke-width="1.5"></path><path d="M1436.09 -46.82L1269.76 89.7" stroke="#132e65" stroke-width="1.5"></path><path d="M1436.09 -46.82L1548.43 199.16" stroke="#132e65" stroke-width="1.5"></path><path d="M1428.43 64.36L1428.43 64.36" stroke="#132e65" stroke-width="1.5"></path><path d="M1428.43 64.36L1444.93 226.18" stroke="#132e65" stroke-width="1.5"></path><path d="M1428.43 64.36L1597.97 91.92" stroke="#132e65" stroke-width="1.5"></path><path d="M1444.93 226.18L1444.93 226.18" stroke="#132e65" stroke-width="1.5"></path><path d="M1444.93 226.18L1548.43 199.16" stroke="#132e65" stroke-width="1.5"></path><path d="M1444.93 226.18L1436.48 410.24" stroke="#132e65" stroke-width="1.5"></path><path d="M1436.48 410.24L1436.48 410.24" stroke="#132e65" stroke-width="1.5"></path><path d="M1436.48 410.24L1459.33 506.51" stroke="#132e65" stroke-width="1.5"></path><path d="M1436.48 410.24L1572.85 386.43" stroke="#132e65" stroke-width="1.5"></path><path d="M1436.48 410.24L1592.57 502.02" stroke="#132e65" stroke-width="1.5"></path><path d="M1459.33 506.51L1459.33 506.51" stroke="#132e65" stroke-width="1.5"></path><path d="M1459.33 506.51L1592.57 502.02" stroke="#132e65" stroke-width="1.5"></path><path d="M1459.33 506.51L1572.85 386.43" stroke="#132e65" stroke-width="1.5"></path><path d="M1572.66 -48.35L1572.66 -48.35" stroke="#132e65" stroke-width="1.5"></path><path d="M1572.66 -48.35L1597.97 91.92" stroke="#132e65" stroke-width="1.5"></path><path d="M1572.66 -48.35L1428.43 64.36" stroke="#132e65" stroke-width="1.5"></path><path d="M1597.97 91.92L1597.97 91.92" stroke="#132e65" stroke-width="1.5"></path><path d="M1597.97 91.92L1548.43 199.16" stroke="#132e65" stroke-width="1.5"></path><path d="M1597.97 91.92L1444.93 226.18" stroke="#132e65" stroke-width="1.5"></path><path d="M1548.43 199.16L1548.43 199.16" stroke="#132e65" stroke-width="1.5"></path><path d="M1548.43 199.16L1428.43 64.36" stroke="#132e65" stroke-width="1.5"></path><path d="M1548.43 199.16L1572.85 386.43" stroke="#132e65" stroke-width="1.5"></path><path d="M1548.43 199.16L1436.48 410.24" stroke="#132e65" stroke-width="1.5"></path><path d="M1572.85 386.43L1572.85 386.43" stroke="#132e65" stroke-width="1.5"></path><path d="M1572.85 386.43L1592.57 502.02" stroke="#132e65" stroke-width="1.5"></path><path d="M1592.57 502.02L1592.57 502.02" stroke="#132e65" stroke-width="1.5"></path><path d="M1563.5 709.73L1563.5 709.73" stroke="#132e65" stroke-width="1.5"></path><path d="M1563.5 709.73L1592.57 502.02" stroke="#132e65" stroke-width="1.5"></path><path d="M1563.5 709.73L1459.33 506.51" stroke="#132e65" stroke-width="1.5"></path><path d="M1563.5 709.73L1262.59 671.65" stroke="#132e65" stroke-width="1.5"></path><path d="M1563.5 709.73L1572.85 386.43" stroke="#132e65" stroke-width="1.5"></path><path d="M1563.5 709.73L1436.48 410.24" stroke="#132e65" stroke-width="1.5"></path><circle r="5" cx="-85.66" cy="361.96" fill="#132e65"></circle><circle r="5" cx="-85.4" cy="537.62" fill="#132e65"></circle><circle r="5" cx="-98.01" cy="677.19" fill="#132e65"></circle><circle r="5" cx="98.53" cy="391.94" fill="#132e65"></circle><circle r="5" cx="111.71" cy="552.18" fill="#132e65"></circle><circle r="5" cx="78.38" cy="670.1" fill="#132e65"></circle><circle r="5" cx="248.13" cy="338.47" fill="#132e65"></circle><circle r="5" cx="234.84" cy="512.33" fill="#132e65"></circle><circle r="5" cx="255.34" cy="655.17" fill="#132e65"></circle><circle r="5" cx="409.09" cy="402.94" fill="#132e65"></circle><circle r="5" cx="353.54" cy="495.55" fill="#132e65"></circle><circle r="5" cx="346.14" cy="666.12" fill="#132e65"></circle><circle r="5" cx="528.36" cy="489.47" fill="#132e65"></circle><circle r="5" cx="535.93" cy="673.47" fill="#132e65"></circle><circle r="5" cx="705.1" cy="232.23" fill="#132e65"></circle><circle r="5" cx="686.61" cy="354.47" fill="#132e65"></circle><circle r="5" cx="697.8" cy="543.09" fill="#132e65"></circle><circle r="5" cx="671.71" cy="709.64" fill="#132e65"></circle><circle r="5" cx="850.94" cy="197.24" fill="#132e65"></circle><circle r="5" cx="840.88" cy="410.83" fill="#132e65"></circle><circle r="5" cx="805.7" cy="507.14" fill="#132e65"></circle><circle r="5" cx="794.87" cy="708.07" fill="#132e65"></circle><circle r="5" cx="991.9" cy="-93.16" fill="#132e65"></circle><circle r="5" cx="968.43" cy="251.42" fill="#132e65"></circle><circle r="5" cx="978.21" cy="383.65" fill="#132e65"></circle><circle r="5" cx="998.79" cy="546.85" fill="#132e65"></circle><circle r="5" cx="981.29" cy="657.39" fill="#132e65"></circle><circle r="5" cx="1114.38" cy="-101.97" fill="#132e65"></circle><circle r="5" cx="1137.09" cy="42.34" fill="#132e65"></circle><circle r="5" cx="1104.97" cy="250.37" fill="#132e65"></circle><circle r="5" cx="1129.64" cy="373.24" fill="#132e65"></circle><circle r="5" cx="1124.02" cy="519.93" fill="#132e65"></circle><circle r="5" cx="1097.96" cy="646.78" fill="#132e65"></circle><circle r="5" cx="1276.87" cy="-52.25" fill="#132e65"></circle><circle r="5" cx="1269.76" cy="89.7" fill="#132e65"></circle><circle r="5" cx="1297.24" cy="255.23" fill="#132e65"></circle><circle r="5" cx="1245.77" cy="373.69" fill="#132e65"></circle><circle r="5" cx="1255.4" cy="511.93" fill="#132e65"></circle><circle r="5" cx="1262.59" cy="671.65" fill="#132e65"></circle><circle r="5" cx="1436.09" cy="-46.82" fill="#132e65"></circle><circle r="5" cx="1428.43" cy="64.36" fill="#132e65"></circle><circle r="5" cx="1444.93" cy="226.18" fill="#132e65"></circle><circle r="5" cx="1436.48" cy="410.24" fill="#132e65"></circle><circle r="5" cx="1459.33" cy="506.51" fill="#132e65"></circle><circle r="5" cx="1572.66" cy="-48.35" fill="#132e65"></circle><circle r="5" cx="1597.97" cy="91.92" fill="#132e65"></circle><circle r="5" cx="1548.43" cy="199.16" fill="#132e65"></circle><circle r="5" cx="1572.85" cy="386.43" fill="#132e65"></circle><circle r="5" cx="1592.57" cy="502.02" fill="#132e65"></circle><circle r="5" cx="1563.5" cy="709.73" fill="#132e65"></circle><path d="M48.88 493.16L48.88 493.16" stroke="hsl(228.5, 77.2%, 51.5%)" stroke-width="1.5"></path><path d="M48.88 493.16L-91.23 524.74" stroke="hsl(228.5, 77.2%, 51.5%)" stroke-width="1.5"></path><path d="M48.88 493.16L214.66 495.01" stroke="hsl(228.5, 77.2%, 51.5%)" stroke-width="1.5"></path><path d="M48.88 493.16L63.65 675.32" stroke="hsl(228.5, 77.2%, 51.5%)" stroke-width="1.5"></path><path d="M48.88 493.16L195.38 660.46" stroke="hsl(228.5, 77.2%, 51.5%)" stroke-width="1.5"></path><path d="M48.88 493.16L-57.79 698.23" stroke="hsl(228.5, 77.2%, 51.5%)" stroke-width="1.5"></path><path d="M48.88 493.16L358.38 508.8" stroke="hsl(228.5, 77.2%, 51.5%)" stroke-width="1.5"></path><path d="M63.65 675.32L63.65 675.32" stroke="hsl(228.5, 77.2%, 51.5%)" stroke-width="1.5"></path><path d="M63.65 675.32L-57.79 698.23" stroke="hsl(228.5, 77.2%, 51.5%)" stroke-width="1.5"></path><path d="M214.66 495.01L214.66 495.01" stroke="hsl(228.5, 77.2%, 51.5%)" stroke-width="1.5"></path><path d="M214.66 495.01L358.38 508.8" stroke="hsl(228.5, 77.2%, 51.5%)" stroke-width="1.5"></path><path d="M214.66 495.01L195.38 660.46" stroke="hsl(228.5, 77.2%, 51.5%)" stroke-width="1.5"></path><path d="M214.66 495.01L352.31 675.94" stroke="hsl(228.5, 77.2%, 51.5%)" stroke-width="1.5"></path><path d="M214.66 495.01L63.65 675.32" stroke="hsl(228.5, 77.2%, 51.5%)" stroke-width="1.5"></path><path d="M214.66 495.01L-91.23 524.74" stroke="hsl(228.5, 77.2%, 51.5%)" stroke-width="1.5"></path><path d="M352.31 675.94L352.31 675.94" stroke="hsl(228.5, 77.2%, 51.5%)" stroke-width="1.5"></path><path d="M352.31 675.94L195.38 660.46" stroke="hsl(228.5, 77.2%, 51.5%)" stroke-width="1.5"></path><path d="M352.31 675.94L358.38 508.8" stroke="hsl(228.5, 77.2%, 51.5%)" stroke-width="1.5"></path><path d="M352.31 675.94L547.35 675.1" stroke="hsl(228.5, 77.2%, 51.5%)" stroke-width="1.5"></path><path d="M352.31 675.94L527.19 488.38" stroke="hsl(228.5, 77.2%, 51.5%)" stroke-width="1.5"></path><path d="M352.31 675.94L63.65 675.32" stroke="hsl(228.5, 77.2%, 51.5%)" stroke-width="1.5"></path><path d="M664.03 542.2L664.03 542.2" stroke="hsl(228.5, 77.2%, 51.5%)" stroke-width="1.5"></path><path d="M664.03 542.2L692.69 662.53" stroke="hsl(228.5, 77.2%, 51.5%)" stroke-width="1.5"></path><path d="M664.03 542.2L527.19 488.38" stroke="hsl(228.5, 77.2%, 51.5%)" stroke-width="1.5"></path><path d="M664.03 542.2L681.48 375.7" stroke="hsl(228.5, 77.2%, 51.5%)" stroke-width="1.5"></path><path d="M664.03 542.2L792.12 656.86" stroke="hsl(228.5, 77.2%, 51.5%)" stroke-width="1.5"></path><path d="M664.03 542.2L547.35 675.1" stroke="hsl(228.5, 77.2%, 51.5%)" stroke-width="1.5"></path><path d="M1088.11 206.39L1088.11 206.39" stroke="hsl(228.5, 77.2%, 51.5%)" stroke-width="1.5"></path><path d="M1088.11 206.39L1147.06 95.46" stroke="hsl(228.5, 77.2%, 51.5%)" stroke-width="1.5"></path><path d="M1088.11 206.39L1264.33 209.05" stroke="hsl(228.5, 77.2%, 51.5%)" stroke-width="1.5"></path><path d="M1099.24 509.69L1099.24 509.69" stroke="hsl(228.5, 77.2%, 51.5%)" stroke-width="1.5"></path><path d="M1099.24 509.69L1007.01 528.54" stroke="hsl(228.5, 77.2%, 51.5%)" stroke-width="1.5"></path><path d="M1099.24 509.69L983.12 402.26" stroke="hsl(228.5, 77.2%, 51.5%)" stroke-width="1.5"></path><path d="M1099.24 509.69L1102.64 686.02" stroke="hsl(228.5, 77.2%, 51.5%)" stroke-width="1.5"></path><path d="M1102.64 686.02L1102.64 686.02" stroke="hsl(228.5, 77.2%, 51.5%)" stroke-width="1.5"></path><path d="M1102.64 686.02L966.84 640.38" stroke="hsl(228.5, 77.2%, 51.5%)" stroke-width="1.5"></path><path d="M1102.64 686.02L1249.17 671.09" stroke="hsl(228.5, 77.2%, 51.5%)" stroke-width="1.5"></path><path d="M1102.64 686.02L1007.01 528.54" stroke="hsl(228.5, 77.2%, 51.5%)" stroke-width="1.5"></path><path d="M1102.64 686.02L1295.9 543.36" stroke="hsl(228.5, 77.2%, 51.5%)" stroke-width="1.5"></path><path d="M1295.9 543.36L1295.9 543.36" stroke="hsl(228.5, 77.2%, 51.5%)" stroke-width="1.5"></path><path d="M1295.9 543.36L1389.8 533.48" stroke="hsl(228.5, 77.2%, 51.5%)" stroke-width="1.5"></path><path d="M1295.9 543.36L1249.17 671.09" stroke="hsl(228.5, 77.2%, 51.5%)" stroke-width="1.5"></path><path d="M1295.9 543.36L1405.28 668.93" stroke="hsl(228.5, 77.2%, 51.5%)" stroke-width="1.5"></path><path d="M1394 66.6L1394 66.6" stroke="hsl(228.5, 77.2%, 51.5%)" stroke-width="1.5"></path><path d="M1394 66.6L1284.1 46.53" stroke="hsl(228.5, 77.2%, 51.5%)" stroke-width="1.5"></path><path d="M1394 66.6L1419.36 201.27" stroke="hsl(228.5, 77.2%, 51.5%)" stroke-width="1.5"></path><path d="M1583.79 385.81L1583.79 385.81" stroke="hsl(228.5, 77.2%, 51.5%)" stroke-width="1.5"></path><path d="M1583.79 385.81L1549.51 489.69" stroke="hsl(228.5, 77.2%, 51.5%)" stroke-width="1.5"></path><path d="M1583.79 385.81L1581.35 237.19" stroke="hsl(228.5, 77.2%, 51.5%)" stroke-width="1.5"></path><path d="M1583.79 385.81L1414.55 337.84" stroke="hsl(228.5, 77.2%, 51.5%)" stroke-width="1.5"></path><path d="M1549.51 489.69L1549.51 489.69" stroke="hsl(228.5, 77.2%, 51.5%)" stroke-width="1.5"></path><path d="M1549.51 489.69L1389.8 533.48" stroke="hsl(228.5, 77.2%, 51.5%)" stroke-width="1.5"></path><path d="M1549.51 489.69L1414.55 337.84" stroke="hsl(228.5, 77.2%, 51.5%)" stroke-width="1.5"></path><path d="M1549.51 489.69L1592.73 690.45" stroke="hsl(228.5, 77.2%, 51.5%)" stroke-width="1.5"></path><path d="M1549.51 489.69L1405.28 668.93" stroke="hsl(228.5, 77.2%, 51.5%)" stroke-width="1.5"></path><path d="M-91.23 524.74L-91.23 524.74" stroke="hsl(228.5, 77.2%, 51.5%)" stroke-width="1.5"></path><path d="M-91.23 524.74L-57.79 698.23" stroke="hsl(228.5, 77.2%, 51.5%)" stroke-width="1.5"></path><path d="M-91.23 524.74L63.65 675.32" stroke="hsl(228.5, 77.2%, 51.5%)" stroke-width="1.5"></path><path d="M-91.23 524.74L195.38 660.46" stroke="hsl(228.5, 77.2%, 51.5%)" stroke-width="1.5"></path><path d="M-57.79 698.23L-57.79 698.23" stroke="hsl(228.5, 77.2%, 51.5%)" stroke-width="1.5"></path><path d="M195.38 660.46L195.38 660.46" stroke="hsl(228.5, 77.2%, 51.5%)" stroke-width="1.5"></path><path d="M195.38 660.46L63.65 675.32" stroke="hsl(228.5, 77.2%, 51.5%)" stroke-width="1.5"></path><path d="M358.38 508.8L358.38 508.8" stroke="hsl(228.5, 77.2%, 51.5%)" stroke-width="1.5"></path><path d="M358.38 508.8L527.19 488.38" stroke="hsl(228.5, 77.2%, 51.5%)" stroke-width="1.5"></path><path d="M358.38 508.8L195.38 660.46" stroke="hsl(228.5, 77.2%, 51.5%)" stroke-width="1.5"></path><path d="M358.38 508.8L547.35 675.1" stroke="hsl(228.5, 77.2%, 51.5%)" stroke-width="1.5"></path><path d="M358.38 508.8L664.03 542.2" stroke="hsl(228.5, 77.2%, 51.5%)" stroke-width="1.5"></path><path d="M527.19 488.38L527.19 488.38" stroke="hsl(228.5, 77.2%, 51.5%)" stroke-width="1.5"></path><path d="M527.19 488.38L547.35 675.1" stroke="hsl(228.5, 77.2%, 51.5%)" stroke-width="1.5"></path><path d="M547.35 675.1L547.35 675.1" stroke="hsl(228.5, 77.2%, 51.5%)" stroke-width="1.5"></path><path d="M547.35 675.1L692.69 662.53" stroke="hsl(228.5, 77.2%, 51.5%)" stroke-width="1.5"></path><path d="M681.48 375.7L681.48 375.7" stroke="hsl(228.5, 77.2%, 51.5%)" stroke-width="1.5"></path><path d="M681.48 375.7L802.59 392.1" stroke="hsl(228.5, 77.2%, 51.5%)" stroke-width="1.5"></path><path d="M681.48 375.7L527.19 488.38" stroke="hsl(228.5, 77.2%, 51.5%)" stroke-width="1.5"></path><path d="M692.69 662.53L692.69 662.53" stroke="hsl(228.5, 77.2%, 51.5%)" stroke-width="1.5"></path><path d="M692.69 662.53L792.12 656.86" stroke="hsl(228.5, 77.2%, 51.5%)" stroke-width="1.5"></path><path d="M802.59 392.1L802.59 392.1" stroke="hsl(228.5, 77.2%, 51.5%)" stroke-width="1.5"></path><path d="M802.59 392.1L857.57 520.19" stroke="hsl(228.5, 77.2%, 51.5%)" stroke-width="1.5"></path><path d="M802.59 392.1L983.12 402.26" stroke="hsl(228.5, 77.2%, 51.5%)" stroke-width="1.5"></path><path d="M857.57 520.19L857.57 520.19" stroke="hsl(228.5, 77.2%, 51.5%)" stroke-width="1.5"></path><path d="M857.57 520.19L1007.01 528.54" stroke="hsl(228.5, 77.2%, 51.5%)" stroke-width="1.5"></path><path d="M857.57 520.19L792.12 656.86" stroke="hsl(228.5, 77.2%, 51.5%)" stroke-width="1.5"></path><path d="M857.57 520.19L966.84 640.38" stroke="hsl(228.5, 77.2%, 51.5%)" stroke-width="1.5"></path><path d="M792.12 656.86L792.12 656.86" stroke="hsl(228.5, 77.2%, 51.5%)" stroke-width="1.5"></path><path d="M792.12 656.86L966.84 640.38" stroke="hsl(228.5, 77.2%, 51.5%)" stroke-width="1.5"></path><path d="M792.12 656.86L547.35 675.1" stroke="hsl(228.5, 77.2%, 51.5%)" stroke-width="1.5"></path><path d="M983.12 402.26L983.12 402.26" stroke="hsl(228.5, 77.2%, 51.5%)" stroke-width="1.5"></path><path d="M983.12 402.26L1007.01 528.54" stroke="hsl(228.5, 77.2%, 51.5%)" stroke-width="1.5"></path><path d="M983.12 402.26L857.57 520.19" stroke="hsl(228.5, 77.2%, 51.5%)" stroke-width="1.5"></path><path d="M1007.01 528.54L1007.01 528.54" stroke="hsl(228.5, 77.2%, 51.5%)" stroke-width="1.5"></path><path d="M966.84 640.38L966.84 640.38" stroke="hsl(228.5, 77.2%, 51.5%)" stroke-width="1.5"></path><path d="M966.84 640.38L1007.01 528.54" stroke="hsl(228.5, 77.2%, 51.5%)" stroke-width="1.5"></path><path d="M966.84 640.38L1099.24 509.69" stroke="hsl(228.5, 77.2%, 51.5%)" stroke-width="1.5"></path><path d="M1147.06 95.46L1147.06 95.46" stroke="hsl(228.5, 77.2%, 51.5%)" stroke-width="1.5"></path><path d="M1147.06 95.46L1284.1 46.53" stroke="hsl(228.5, 77.2%, 51.5%)" stroke-width="1.5"></path><path d="M1147.06 95.46L1264.33 209.05" stroke="hsl(228.5, 77.2%, 51.5%)" stroke-width="1.5"></path><path d="M1147.06 95.46L1286.17 -98.45" stroke="hsl(228.5, 77.2%, 51.5%)" stroke-width="1.5"></path><path d="M1147.06 95.46L1394 66.6" stroke="hsl(228.5, 77.2%, 51.5%)" stroke-width="1.5"></path><path d="M1147.06 95.46L1270.36 339.9" stroke="hsl(228.5, 77.2%, 51.5%)" stroke-width="1.5"></path><path d="M1286.17 -98.45L1286.17 -98.45" stroke="hsl(228.5, 77.2%, 51.5%)" stroke-width="1.5"></path><path d="M1286.17 -98.45L1405.54 -112" stroke="hsl(228.5, 77.2%, 51.5%)" stroke-width="1.5"></path><path d="M1286.17 -98.45L1284.1 46.53" stroke="hsl(228.5, 77.2%, 51.5%)" stroke-width="1.5"></path><path d="M1286.17 -98.45L1394 66.6" stroke="hsl(228.5, 77.2%, 51.5%)" stroke-width="1.5"></path><path d="M1286.17 -98.45L1540.07 -103.01" stroke="hsl(228.5, 77.2%, 51.5%)" stroke-width="1.5"></path><path d="M1286.17 -98.45L1264.33 209.05" stroke="hsl(228.5, 77.2%, 51.5%)" stroke-width="1.5"></path><path d="M1284.1 46.53L1284.1 46.53" stroke="hsl(228.5, 77.2%, 51.5%)" stroke-width="1.5"></path><path d="M1284.1 46.53L1264.33 209.05" stroke="hsl(228.5, 77.2%, 51.5%)" stroke-width="1.5"></path><path d="M1264.33 209.05L1264.33 209.05" stroke="hsl(228.5, 77.2%, 51.5%)" stroke-width="1.5"></path><path d="M1264.33 209.05L1270.36 339.9" stroke="hsl(228.5, 77.2%, 51.5%)" stroke-width="1.5"></path><path d="M1264.33 209.05L1419.36 201.27" stroke="hsl(228.5, 77.2%, 51.5%)" stroke-width="1.5"></path><path d="M1270.36 339.9L1270.36 339.9" stroke="hsl(228.5, 77.2%, 51.5%)" stroke-width="1.5"></path><path d="M1270.36 339.9L1414.55 337.84" stroke="hsl(228.5, 77.2%, 51.5%)" stroke-width="1.5"></path><path d="M1270.36 339.9L1419.36 201.27" stroke="hsl(228.5, 77.2%, 51.5%)" stroke-width="1.5"></path><path d="M1249.17 671.09L1249.17 671.09" stroke="hsl(228.5, 77.2%, 51.5%)" stroke-width="1.5"></path><path d="M1405.54 -112L1405.54 -112" stroke="hsl(228.5, 77.2%, 51.5%)" stroke-width="1.5"></path><path d="M1405.54 -112L1540.07 -103.01" stroke="hsl(228.5, 77.2%, 51.5%)" stroke-width="1.5"></path><path d="M1419.36 201.27L1419.36 201.27" stroke="hsl(228.5, 77.2%, 51.5%)" stroke-width="1.5"></path><path d="M1419.36 201.27L1414.55 337.84" stroke="hsl(228.5, 77.2%, 51.5%)" stroke-width="1.5"></path><path d="M1419.36 201.27L1581.35 237.19" stroke="hsl(228.5, 77.2%, 51.5%)" stroke-width="1.5"></path><path d="M1419.36 201.27L1284.1 46.53" stroke="hsl(228.5, 77.2%, 51.5%)" stroke-width="1.5"></path><path d="M1414.55 337.84L1414.55 337.84" stroke="hsl(228.5, 77.2%, 51.5%)" stroke-width="1.5"></path><path d="M1389.8 533.48L1389.8 533.48" stroke="hsl(228.5, 77.2%, 51.5%)" stroke-width="1.5"></path><path d="M1389.8 533.48L1405.28 668.93" stroke="hsl(228.5, 77.2%, 51.5%)" stroke-width="1.5"></path><path d="M1405.28 668.93L1405.28 668.93" stroke="hsl(228.5, 77.2%, 51.5%)" stroke-width="1.5"></path><path d="M1405.28 668.93L1249.17 671.09" stroke="hsl(228.5, 77.2%, 51.5%)" stroke-width="1.5"></path><path d="M1405.28 668.93L1592.73 690.45" stroke="hsl(228.5, 77.2%, 51.5%)" stroke-width="1.5"></path><path d="M1540.07 -103.01L1540.07 -103.01" stroke="hsl(228.5, 77.2%, 51.5%)" stroke-width="1.5"></path><path d="M1540.07 -103.01L1605.98 95.99" stroke="hsl(228.5, 77.2%, 51.5%)" stroke-width="1.5"></path><path d="M1540.07 -103.01L1394 66.6" stroke="hsl(228.5, 77.2%, 51.5%)" stroke-width="1.5"></path><path d="M1605.98 95.99L1605.98 95.99" stroke="hsl(228.5, 77.2%, 51.5%)" stroke-width="1.5"></path><path d="M1605.98 95.99L1581.35 237.19" stroke="hsl(228.5, 77.2%, 51.5%)" stroke-width="1.5"></path><path d="M1581.35 237.19L1581.35 237.19" stroke="hsl(228.5, 77.2%, 51.5%)" stroke-width="1.5"></path><path d="M1592.73 690.45L1592.73 690.45" stroke="hsl(228.5, 77.2%, 51.5%)" stroke-width="1.5"></path><path d="M1592.73 690.45L1389.8 533.48" stroke="hsl(228.5, 77.2%, 51.5%)" stroke-width="1.5"></path><path d="M1592.73 690.45L1583.79 385.81" stroke="hsl(228.5, 77.2%, 51.5%)" stroke-width="1.5"></path><path d="M1592.73 690.45L1295.9 543.36" stroke="hsl(228.5, 77.2%, 51.5%)" stroke-width="1.5"></path><circle r="25" cx="48.88" cy="493.16" fill="url(#SvgjsRadialGradient1007)"></circle><circle r="25" cx="63.65" cy="675.32" fill="url(#SvgjsRadialGradient1007)"></circle><circle r="25" cx="214.66" cy="495.01" fill="url(#SvgjsRadialGradient1007)"></circle><circle r="25" cx="352.31" cy="675.94" fill="url(#SvgjsRadialGradient1007)"></circle><circle r="25" cx="664.03" cy="542.2" fill="url(#SvgjsRadialGradient1007)"></circle><circle r="25" cx="1088.11" cy="206.39" fill="url(#SvgjsRadialGradient1007)"></circle><circle r="25" cx="1099.24" cy="509.69" fill="url(#SvgjsRadialGradient1007)"></circle><circle r="25" cx="1102.64" cy="686.02" fill="url(#SvgjsRadialGradient1007)"></circle><circle r="25" cx="1295.9" cy="543.36" fill="url(#SvgjsRadialGradient1007)"></circle><circle r="25" cx="1394" cy="66.6" fill="url(#SvgjsRadialGradient1007)"></circle><circle r="25" cx="1583.79" cy="385.81" fill="url(#SvgjsRadialGradient1007)"></circle><circle r="25" cx="1549.51" cy="489.69" fill="url(#SvgjsRadialGradient1007)"></circle><circle r="5" cx="-91.23" cy="524.74" fill="#8b9ad9"></circle><circle r="5" cx="-57.79" cy="698.23" fill="#8b9ad9"></circle><circle r="5" cx="195.38" cy="660.46" fill="#8b9ad9"></circle><circle r="5" cx="358.38" cy="508.8" fill="#8b9ad9"></circle><circle r="5" cx="527.19" cy="488.38" fill="#8b9ad9"></circle><circle r="5" cx="547.35" cy="675.1" fill="#8b9ad9"></circle><circle r="5" cx="681.48" cy="375.7" fill="#8b9ad9"></circle><circle r="5" cx="692.69" cy="662.53" fill="#8b9ad9"></circle><circle r="5" cx="802.59" cy="392.1" fill="#8b9ad9"></circle><circle r="5" cx="857.57" cy="520.19" fill="#8b9ad9"></circle><circle r="5" cx="792.12" cy="656.86" fill="#8b9ad9"></circle><circle r="5" cx="983.12" cy="402.26" fill="#8b9ad9"></circle><circle r="5" cx="1007.01" cy="528.54" fill="#8b9ad9"></circle><circle r="5" cx="966.84" cy="640.38" fill="#8b9ad9"></circle><circle r="5" cx="1147.06" cy="95.46" fill="#8b9ad9"></circle><circle r="5" cx="1286.17" cy="-98.45" fill="#8b9ad9"></circle><circle r="5" cx="1284.1" cy="46.53" fill="#8b9ad9"></circle><circle r="5" cx="1264.33" cy="209.05" fill="#8b9ad9"></circle><circle r="5" cx="1270.36" cy="339.9" fill="#8b9ad9"></circle><circle r="5" cx="1249.17" cy="671.09" fill="#8b9ad9"></circle><circle r="5" cx="1405.54" cy="-112" fill="#8b9ad9"></circle><circle r="5" cx="1419.36" cy="201.27" fill="#8b9ad9"></circle><circle r="5" cx="1414.55" cy="337.84" fill="#8b9ad9"></circle><circle r="5" cx="1389.8" cy="533.48" fill="#8b9ad9"></circle><circle r="5" cx="1405.28" cy="668.93" fill="#8b9ad9"></circle><circle r="5" cx="1540.07" cy="-103.01" fill="#8b9ad9"></circle><circle r="5" cx="1605.98" cy="95.99" fill="#8b9ad9"></circle><circle r="5" cx="1581.35" cy="237.19" fill="#8b9ad9"></circle><circle r="5" cx="1592.73" cy="690.45" fill="#8b9ad9"></circle></g><defs><mask id="SvgjsMask1006"><rect width="1440" height="560" fill="#ffffff"></rect></mask><radialGradient id="SvgjsRadialGradient1007"><stop stop-color="#ffffff" offset="0.1"></stop><stop stop-color="#1735b3" offset="0.2"></stop><stop stop-color="rgba(23, 53, 179, 0)" offset="1"></stop></radialGradient></defs></svg>